<?xml version="1.0" standalone="no"?><!DOCTYPE svg PUBLIC "-//W3C//DTD SVG 1.1//EN" "http://www.w3.org/Graphics/SVG/1.1/DTD/svg11.dtd"><svg t="1703258682610" class="icon" viewBox="0 0 1024 1024" version="1.1" xmlns="http://www.w3.org/2000/svg" p-id="993" xmlns:xlink="http://www.w3.org/1999/xlink" width="200" height="200"><path d="M180.46 481.96h150c66.17 0 120-53.83 120-120v-150c0-66.17-53.83-120-120-120h-150c-66.17 0-120 53.83-120 120v150c0 66.17 53.83 120 120 120zM335.46 571.96h-160c-66.17 0-120 53.83-120 120v160c0 66.17 53.83 120 120 120h160c66.17 0 120-53.83 120-120v-160c0-66.17-53.83-120-120-120zM815.46 571.96h-160c-66.17 0-120 53.83-120 120v160c0 66.17 53.83 120 120 120h160c66.17 0 120-53.83 120-120v-160c0-66.17-53.83-120-120-120zM650.61 484.95c22.67 22.67 52.8 35.15 84.85 35.15s62.19-12.48 84.85-35.15l113.14-113.14c46.79-46.79 46.79-122.92 0-169.71L820.31 88.97c-22.67-22.67-52.8-35.15-84.85-35.15s-62.19 12.48-84.85 35.15L537.47 202.11c-46.79 46.79-46.79 122.92 0 169.71l113.14 113.13z" fill="#ffffff" p-id="994"></path></svg>